<?xml version="1.0" encoding="UTF-8"?>
<svg width="32" height="32" viewBox="0 0 32 32" xmlns="http://www.w3.org/2000/svg">
  <defs>
    <linearGradient id="indigo-gradient" x1="0%" y1="0%" x2="100%" y2="100%">
      <stop offset="0%" style="stop-color:#4F46E5"/>
      <stop offset="100%" style="stop-color:#3730A3"/>
    </linearGradient>
  </defs>
  
  <!-- Background -->
  <rect width="32" height="32" rx="6" fill="url(#indigo-gradient)"/>
  
  <!-- IndiaDataHub Icon (Database/Data representation) -->
  <g fill="white" opacity="0.95">
    <!-- Database cylinders representing data -->
    <ellipse cx="10" cy="10" rx="3" ry="1.5" fill="white"/>
    <rect x="7" y="10" width="6" height="4" fill="white"/>
    <ellipse cx="10" cy="14" rx="3" ry="1.5" fill="white"/>
    
    <ellipse cx="22" cy="18" rx="3" ry="1.5" fill="white"/>
    <rect x="19" y="18" width="6" height="4" fill="white"/>
    <ellipse cx="22" cy="22" rx="3" ry="1.5" fill="white"/>
    
    <!-- Connecting lines representing data flow -->
    <line x1="13" y1="12" x2="19" y2="20" stroke="white" stroke-width="2" opacity="0.8"/>
    
    <!-- India map outline (simplified) -->
    <path d="M4 20 Q6 18 8 20 Q10 22 12 20 Q14 18 16 20 L16 26 Q12 28 8 26 Q6 24 4 26 Z" 
          fill="none" stroke="white" stroke-width="1.5" opacity="0.7"/>
  </g>
</svg>